<svg width="36" height="36" viewBox="0 0 36 36" fill="none" xmlns="http://www.w3.org/2000/svg">
<path fill-rule="evenodd" clip-rule="evenodd" d="M15.403 9.092C16.2825 9.25783 17.107 9.63959 17.8025 10.203C18.4979 10.7663 19.0425 11.4937 19.3872 12.3196C19.732 13.1456 19.8661 14.0442 19.7776 14.9348C19.689 15.8254 19.3806 16.6801 18.88 17.422L32.714 28.16C33.1646 27.9266 33.6808 27.8523 34.1789 27.9492C34.677 28.0462 35.1276 28.3086 35.4578 28.694C35.7879 29.0794 35.9781 29.565 35.9974 30.072C36.0167 30.5791 35.8641 31.0778 35.5643 31.4872C35.2645 31.8966 34.8351 32.1926 34.3458 32.3272C33.8566 32.4618 33.3362 32.4271 32.8692 32.2286C32.4022 32.0302 32.0159 31.6798 31.7732 31.2342C31.5304 30.7886 31.4454 30.274 31.532 29.774L17.462 18.852C16.7995 19.306 16.044 19.6066 15.2506 19.7317C14.4572 19.8568 13.6458 19.8033 12.8757 19.5752C12.1056 19.347 11.3961 18.95 10.7988 18.4129C10.2016 17.8759 9.73164 17.2124 9.42327 16.4707C9.11491 15.7291 8.97588 14.928 9.0163 14.1258C9.05673 13.3236 9.2756 12.5405 9.65696 11.8336C10.0383 11.1268 10.5726 10.5138 11.2208 10.0396C11.869 9.56526 12.6149 9.24155 13.404 9.092L13.402 0H15.402V9.092H15.403ZM16.202 14.4C16.202 14.6364 16.1554 14.8704 16.065 15.0888C15.9745 15.3072 15.8419 15.5056 15.6748 15.6728C15.5077 15.8399 15.3092 15.9725 15.0908 16.063C14.8725 16.1534 14.6384 16.2 14.402 16.2C14.1656 16.2 13.9316 16.1534 13.7132 16.063C13.4948 15.9725 13.2964 15.8399 13.1292 15.6728C12.9621 15.5056 12.8295 15.3072 12.739 15.0888C12.6486 14.8704 12.602 14.6364 12.602 14.4C12.602 13.9226 12.7917 13.4648 13.1292 13.1272C13.4668 12.7896 13.9246 12.6 14.402 12.6C14.8794 12.6 15.3372 12.7896 15.6748 13.1272C16.0124 13.4648 16.202 13.9226 16.202 14.4Z" fill="#0560FA"/>
<path d="M21.626 14.384C21.6263 13.0007 21.2282 11.6467 20.4793 10.4837C19.7304 9.32071 18.6624 8.39804 17.403 7.82599V0.105988C21.692 0.482988 23.92 1.83399 25.915 3.68299C26.015 3.77699 26.115 3.86799 26.211 3.95599V3.95699C27.061 4.73699 27.737 5.35799 28.086 6.28799L32.32 17.56C32.4335 17.8625 32.4719 18.1881 32.432 18.5087C32.3921 18.8294 32.2751 19.1356 32.091 19.4011C31.9069 19.6666 31.6611 19.8836 31.3748 20.0333C31.0885 20.1831 30.7701 20.2612 30.447 20.261H28.816V22.6L21.241 16.717C21.4974 15.9663 21.6279 15.1783 21.627 14.385L21.626 14.384ZM11.403 7.84599V0.240988C2.413 1.59399 0 8.30099 0 11.975C0 17.742 3.683 22.215 5.41 24.008V36H22.522V29.488H26.815C27.117 29.488 27.405 29.42 27.661 29.3L17.076 21.08C15.3265 21.8019 13.3631 21.806 11.6106 21.0914C9.85813 20.3767 8.45752 19.0007 7.71184 17.2612C6.96617 15.5217 6.93539 13.5585 7.62619 11.7965C8.31698 10.0344 9.67378 8.61524 11.403 7.84599Z" fill="#0560FA"/>
</svg>
