<svg width="13" height="17" viewBox="0 0 13 17" fill="none" xmlns="http://www.w3.org/2000/svg">
<path fill-rule="evenodd" clip-rule="evenodd" d="M11.3431 6.99384C11.7116 6.99384 12.0104 7.24642 12.0104 7.558L12.008 7.58831V8.99097H11.9997C12.0018 11.5827 9.71076 13.766 6.66709 14.0729V15.788H9.18128L9.18057 15.7952C9.18966 15.7949 9.19878 15.7948 9.20796 15.7948C9.57647 15.7948 9.87521 16.0473 9.87521 16.3589C9.87521 16.6705 9.57647 16.9231 9.20796 16.9231L9.18074 16.9211L9.18128 16.9231H2.82645C2.81874 16.923 2.8106 16.9231 2.80243 16.9231C2.43392 16.9231 2.13517 16.6705 2.13517 16.3589C2.13517 16.0473 2.43392 15.7948 2.80243 15.7948L2.82645 15.796V15.788H5.34596V14.0729C2.2958 13.7732 -0.00370432 11.5873 4.47995e-06 8.99097C4.47995e-06 8.96615 0.00455293 8.94358 0.005087 8.92102L0.00520917 7.62877C0.00177821 7.60559 4.47995e-06 7.58197 4.47995e-06 7.558C4.47995e-06 7.24642 0.298748 6.99384 0.667256 6.99384C1.03576 6.99384 1.33451 7.24642 1.33451 7.558L1.33074 7.60455L1.33128 9.16699H1.32781V9.1715L1.33128 9.23243V9.44455H1.34384C1.54217 11.451 3.48415 13.0148 5.86401 13.0845H6.13357C8.51419 13.0159 10.4572 11.4516 10.6548 9.44455H10.6708V7.56477C10.6759 7.56261 10.6759 7.5603 10.6759 7.558C10.6759 7.24642 10.9746 6.99384 11.3431 6.99384ZM9.60298 8.04092C9.60298 8.38167 9.60297 8.74049 9.58162 9.08124C9.56523 9.38853 9.50975 9.69342 9.41615 9.99066C9.20727 10.6146 8.76186 11.1632 8.14838 11.5523C6.89006 12.3917 5.115 12.3917 3.85668 11.5523C3.2416 11.1644 2.79564 10.6153 2.58837 9.99066C2.49434 9.6935 2.43894 9.38856 2.42317 9.08124C2.39995 8.74049 2.40203 8.38167 2.40203 8.04092V5.18852C2.40203 4.85002 2.40422 3.35387 2.40203 3.10113C2.41263 2.79199 2.47555 2.48573 2.58891 2.1917C3.01619 0.896138 4.41206 0 6.0028 0C7.59353 0 8.9894 0.896138 9.41669 2.1917C9.51702 2.48836 9.57963 2.79323 9.60349 3.10113C9.62751 3.44188 9.60349 4.85002 9.60349 5.18852V8.04092H9.60298ZM8.26848 8.57349C8.26848 8.79012 8.26313 8.86234 8.24712 9.07898C8.23791 9.2757 8.20302 9.47096 8.14305 9.66119C8.01523 10.0606 7.73693 10.4139 7.35035 10.6677C6.55824 11.1882 5.44948 11.1882 4.65737 10.6677C4.26929 10.4147 3.98991 10.0612 3.86201 9.66119C3.80333 9.47073 3.76844 9.27559 3.75791 9.07898C3.74457 8.86234 3.74191 8.79012 3.74191 8.57349C3.74191 5.57215 3.72588 3.3471 3.74724 3.10789C3.76267 2.91109 3.80112 2.71607 3.86201 2.52567C3.98991 2.12571 4.26929 1.77219 4.65737 1.51921C5.44948 0.998675 6.55824 0.998675 7.35035 1.51921C7.73693 1.77294 8.01523 2.12626 8.14305 2.52567C8.21085 2.71519 8.25382 2.91044 8.27116 3.10789C8.28985 3.36515 8.26848 5.56312 8.26848 8.57349Z" fill="#A7A7A7"/>
</svg>
