<svg width="28" height="27" viewBox="0 0 28 27" fill="none" xmlns="http://www.w3.org/2000/svg">
<path fill-rule="evenodd" clip-rule="evenodd" d="M13.9072 0C21.5879 0 27.8144 6.04416 27.8144 13.5C27.8144 20.9558 21.5879 27 13.9072 27C6.22647 27 0 20.9558 0 13.5C0 6.04416 6.22647 0 13.9072 0ZM13.9072 1.57275C20.693 1.5735 26.1933 6.91384 26.1928 13.5009C26.1923 20.088 20.6911 25.4275 13.9054 25.4272C7.1196 25.427 1.6188 20.0871 1.6188 13.5C1.6188 10.3365 2.91363 7.30259 5.21818 5.06578C7.52272 2.82897 10.6483 1.57248 13.9072 1.57275ZM9.50766 7.64438C9.07781 7.63941 8.66385 7.80196 8.35847 8.09567C8.0531 8.38938 7.88181 8.7897 7.88295 9.207C7.88295 10.078 8.61036 10.7841 9.50766 10.7841C10.405 10.7841 11.1324 10.078 11.1324 9.207C11.1335 8.7897 10.9622 8.38938 10.6569 8.09567C10.3515 7.80196 9.93752 7.63941 9.50766 7.64438ZM23.1753 15.8254C22.4348 19.71 18.5724 22.9534 13.9055 22.9534C9.27576 22.9534 5.43598 19.7573 4.65196 15.9165C4.49307 14.958 5.30178 14.7319 6.06354 14.9108C8.61189 15.626 11.2547 15.974 13.9072 15.9435C16.5538 15.9733 19.1905 15.6265 21.7335 14.9141C22.4741 14.7319 23.2671 14.9378 23.1753 15.8254ZM20.6612 16.3654C20.5889 16.3924 20.5156 16.4126 20.4415 16.4362C20.4339 16.4396 20.6786 16.362 20.6713 16.3654C18.4724 16.953 16.1993 17.2382 13.9187 17.2125C11.197 17.2125 8.76293 16.9189 7.08781 16.335C5.87336 15.984 6.10631 17.3711 6.95986 17.7964C9.14348 18.7613 11.5192 19.2476 13.9183 19.2206C16.7721 19.2206 19.315 18.576 20.9947 17.7424C21.7895 17.2462 21.9466 15.9165 20.6612 16.3654ZM18.3158 7.64438C17.8859 7.63941 17.4719 7.80196 17.1665 8.09566C16.8611 8.38936 16.6897 8.78967 16.6907 9.207C16.6822 9.77602 16.99 10.3054 17.4962 10.5923C18.0025 10.8793 18.6287 10.8793 19.135 10.5923C19.6413 10.3054 19.9491 9.77602 19.9405 9.207C19.9416 8.78973 19.7702 8.38947 19.4649 8.09578C19.1595 7.80209 18.7456 7.6395 18.3158 7.64438Z" fill="#A7A7A7"/>
</svg>
