<svg width="14" height="14" viewBox="0 0 14 14" fill="none" xmlns="http://www.w3.org/2000/svg">
<path d="M8.47585 5.52417L5.52418 8.47583C5.14502 8.09667 4.91168 7.5775 4.91168 7C4.91168 5.845 5.84502 4.91167 7.00002 4.91167C7.57752 4.91167 8.09668 5.145 8.47585 5.52417Z" stroke="#141414" stroke-width="1.5" stroke-linecap="round" stroke-linejoin="round"/>
<path d="M10.395 3.36583C9.37417 2.59583 8.2075 2.17583 7 2.17583C4.94083 2.17583 3.02167 3.38917 1.68583 5.48917C1.16083 6.31167 1.16083 7.69417 1.68583 8.51667C2.14667 9.24 2.68333 9.86417 3.26667 10.3658" stroke="#141414" stroke-width="1.5" stroke-linecap="round" stroke-linejoin="round"/>
<path d="M4.91168 11.3925C5.57668 11.6725 6.28252 11.8242 7.00002 11.8242C9.05918 11.8242 10.9783 10.6108 12.3142 8.51083C12.8392 7.68833 12.8392 6.30583 12.3142 5.48333C12.1217 5.18 11.9117 4.89416 11.6958 4.62583" stroke="#141414" stroke-width="1.5" stroke-linecap="round" stroke-linejoin="round"/>
<path d="M9.0475 7.40833C8.89583 8.23083 8.225 8.90167 7.4025 9.05333" stroke="#141414" stroke-width="1.5" stroke-linecap="round" stroke-linejoin="round"/>
<path d="M5.52416 8.47583L1.16666 12.8333" stroke="#141414" stroke-width="1.5" stroke-linecap="round" stroke-linejoin="round"/>
<path d="M12.8333 1.16667L8.47583 5.52417" stroke="#141414" stroke-width="1.5" stroke-linecap="round" stroke-linejoin="round"/>
</svg>
