<svg width="21" height="21" viewBox="0 0 21 21" fill="none" xmlns="http://www.w3.org/2000/svg">
<path d="M10.2125 0.712494C4.96567 0.712494 0.712524 4.96564 0.712524 10.2125C0.712524 15.4593 4.96567 19.7125 10.2125 19.7125C15.4594 19.7125 19.7125 15.4593 19.7125 10.2125C19.7125 4.96564 15.4594 0.712494 10.2125 0.712494Z" stroke="#3A3A3A" stroke-width="1.425" stroke-linecap="round" stroke-linejoin="round"/>
<path d="M2.86993 16.2412C2.86993 16.2412 4.98748 13.5375 10.2125 13.5375C15.4375 13.5375 17.556 16.2412 17.556 16.2412M10.2125 10.2125C10.9684 10.2125 11.6933 9.91218 12.2277 9.37771C12.7622 8.84323 13.0625 8.11832 13.0625 7.36245C13.0625 6.60658 12.7622 5.88168 12.2277 5.3472C11.6933 4.81272 10.9684 4.51245 10.2125 4.51245C9.45662 4.51245 8.73171 4.81272 8.19723 5.3472C7.66275 5.88168 7.36248 6.60658 7.36248 7.36245C7.36248 8.11832 7.66275 8.84323 8.19723 9.37771C8.73171 9.91218 9.45662 10.2125 10.2125 10.2125V10.2125Z" stroke="#3A3A3A" stroke-width="1.425" stroke-linecap="round" stroke-linejoin="round"/>
</svg>
