<svg width="36" height="36" viewBox="0 0 36 36" fill="none" xmlns="http://www.w3.org/2000/svg">
<path d="M17.7569 33.2942C18.9827 33.2942 19.9765 32.3005 19.9765 31.0746C19.9765 29.8487 18.9827 28.855 17.7569 28.855C16.531 28.855 15.5372 29.8487 15.5372 31.0746C15.5372 32.3005 16.531 33.2942 17.7569 33.2942Z" stroke="#3A3A3A" stroke-width="0.918466" stroke-miterlimit="10"/>
<path d="M17.7569 24.4156C18.9827 24.4156 19.9765 23.4219 19.9765 22.196C19.9765 20.9701 18.9827 19.9764 17.7569 19.9764C16.531 19.9764 15.5372 20.9701 15.5372 22.196C15.5372 23.4219 16.531 24.4156 17.7569 24.4156Z" stroke="#3A3A3A" stroke-width="0.918466" stroke-miterlimit="10"/>
<path d="M19.9765 13.3176C19.9765 13.7566 19.8463 14.1858 19.6024 14.5508C19.3585 14.9158 19.0119 15.2003 18.6063 15.3683C18.2007 15.5363 17.7544 15.5802 17.3238 15.4946C16.8933 15.409 16.4978 15.1976 16.1874 14.8871C15.8769 14.5767 15.6655 14.1812 15.5799 13.7506C15.4943 13.3201 15.5382 12.8738 15.7062 12.4682C15.8742 12.0626 16.1587 11.716 16.5237 11.4721C16.8887 11.2282 17.3179 11.098 17.7569 11.098C18.3456 11.098 18.9101 11.3318 19.3264 11.7481C19.7426 12.1644 19.9765 12.7289 19.9765 13.3176Z" stroke="#3A3A3A" stroke-width="0.918466" stroke-miterlimit="10"/>
<path d="M17.7569 6.65889C18.9827 6.65889 19.9765 5.66513 19.9765 4.43926C19.9765 3.2134 18.9827 2.21964 17.7569 2.21964C16.531 2.21964 15.5372 3.2134 15.5372 4.43926C15.5372 5.66513 16.531 6.65889 17.7569 6.65889Z" stroke="#3A3A3A" stroke-width="0.918466" stroke-miterlimit="10"/>
<path d="M26.6352 24.4156C27.8611 24.4156 28.8549 23.4219 28.8549 22.196C28.8549 20.9701 27.8611 19.9764 26.6352 19.9764C25.4094 19.9764 24.4156 20.9701 24.4156 22.196C24.4156 23.4219 25.4094 24.4156 26.6352 24.4156Z" stroke="#3A3A3A" stroke-width="0.918466" stroke-miterlimit="10"/>
<path d="M26.6352 15.5372C27.8611 15.5372 28.8549 14.5435 28.8549 13.3176C28.8549 12.0918 27.8611 11.098 26.6352 11.098C25.4094 11.098 24.4156 12.0918 24.4156 13.3176C24.4156 14.5435 25.4094 15.5372 26.6352 15.5372Z" stroke="#3A3A3A" stroke-width="0.918466" stroke-miterlimit="10"/>
<path d="M26.6352 6.65889C27.8611 6.65889 28.8549 5.66513 28.8549 4.43926C28.8549 3.2134 27.8611 2.21964 26.6352 2.21964C25.4094 2.21964 24.4156 3.2134 24.4156 4.43926C24.4156 5.66513 25.4094 6.65889 26.6352 6.65889Z" stroke="#3A3A3A" stroke-width="0.918466" stroke-miterlimit="10"/>
<path d="M8.87826 24.4156C10.1041 24.4156 11.0979 23.4219 11.0979 22.196C11.0979 20.9701 10.1041 19.9764 8.87826 19.9764C7.65239 19.9764 6.65863 20.9701 6.65863 22.196C6.65863 23.4219 7.65239 24.4156 8.87826 24.4156Z" stroke="#3A3A3A" stroke-width="0.918466" stroke-miterlimit="10"/>
<path d="M8.87826 15.5372C10.1041 15.5372 11.0979 14.5435 11.0979 13.3176C11.0979 12.0918 10.1041 11.098 8.87826 11.098C7.65239 11.098 6.65863 12.0918 6.65863 13.3176C6.65863 14.5435 7.65239 15.5372 8.87826 15.5372Z" stroke="#3A3A3A" stroke-width="0.918466" stroke-miterlimit="10"/>
<path d="M8.87826 6.65889C10.1041 6.65889 11.0979 5.66513 11.0979 4.43926C11.0979 3.2134 10.1041 2.21964 8.87826 2.21964C7.65239 2.21964 6.65863 3.2134 6.65863 4.43926C6.65863 5.66513 7.65239 6.65889 8.87826 6.65889Z" stroke="#3A3A3A" stroke-width="0.918466" stroke-miterlimit="10"/>
</svg>
