<svg width="33" height="33" viewBox="0 0 33 33" fill="none" xmlns="http://www.w3.org/2000/svg">
<path fill-rule="evenodd" clip-rule="evenodd" d="M16.17 2.13791C16.3522 2.22717 16.5056 2.36582 16.6128 2.53805C16.7199 2.71028 16.7766 2.90916 16.7761 3.11201V29.088C16.7763 29.2907 16.7195 29.4893 16.6123 29.6613C16.5051 29.8333 16.3517 29.9718 16.1696 30.0609C15.9876 30.15 15.7842 30.1862 15.5826 30.1653C15.381 30.1445 15.1892 30.0675 15.0293 29.943L6.97238 23.6763H3.247C2.38584 23.6763 1.55995 23.3342 0.951023 22.7253C0.342093 22.1164 0 21.2905 0 20.4293L0 11.7707C0 10.9095 0.342093 10.0836 0.951023 9.4747C1.55995 8.86577 2.38584 8.52367 3.247 8.52367H6.97238L15.0293 2.25697C15.1894 2.1326 15.3812 2.05569 15.5829 2.03503C15.7846 2.01436 15.988 2.05076 16.17 2.14008V2.13791ZM14.6115 5.3243L8.00926 10.461C7.81916 10.6086 7.58533 10.6886 7.34471 10.6883H3.247C2.95994 10.6883 2.68465 10.8024 2.48167 11.0053C2.2787 11.2083 2.16466 11.4836 2.16466 11.7707V20.4293C2.16466 20.7164 2.2787 20.9917 2.48167 21.1947C2.68465 21.3976 2.95994 21.5117 3.247 21.5117H7.34471C7.58533 21.5114 7.81916 21.5914 8.00926 21.7389L14.6115 26.8757V5.3243ZM22.2484 8.19464C22.3431 8.13148 22.4492 8.08758 22.5608 8.06547C22.6725 8.04336 22.7873 8.04346 22.8989 8.06578C23.0105 8.08809 23.1166 8.13218 23.2111 8.19552C23.3056 8.25886 23.3867 8.34021 23.4498 8.43492C24.9563 10.707 25.7597 13.3727 25.7597 16.0989C25.7597 18.8251 24.9563 21.4908 23.4498 23.7629C23.3208 23.9497 23.1236 24.0784 22.9006 24.1212C22.6777 24.164 22.4468 24.1175 22.2578 23.9918C22.0688 23.8661 21.9367 23.6711 21.89 23.4489C21.8433 23.2268 21.8857 22.9952 22.0081 22.804C23.3252 20.8162 24.0276 18.4845 24.0276 16.1C24.0276 13.7155 23.3252 11.3838 22.0081 9.39603C21.945 9.30139 21.9011 9.19523 21.879 9.08361C21.8569 8.97199 21.857 8.85711 21.8793 8.74554C21.9016 8.63396 21.9457 8.52788 22.009 8.43335C22.0724 8.33882 22.1537 8.25771 22.2484 8.19464ZM27.4436 2.96049C27.2949 2.78538 27.0828 2.67652 26.8538 2.65785C26.6248 2.63917 26.3978 2.71222 26.2227 2.86091C26.0476 3.00961 25.9388 3.22177 25.9201 3.45072C25.9014 3.67968 25.9745 3.90668 26.1232 4.08178C28.963 7.44246 30.521 11.7002 30.521 16.1C30.521 20.4998 28.963 24.7575 26.1232 28.1182C25.9745 28.2933 25.9014 28.5203 25.9201 28.7493C25.9388 28.9782 26.0476 29.1904 26.2227 29.3391C26.3978 29.4878 26.6248 29.5608 26.8538 29.5421C27.0828 29.5235 27.2949 29.4146 27.4436 29.2395C30.5494 25.5658 32.2535 20.9106 32.2535 16.1C32.2535 11.2894 30.5494 6.63423 27.4436 2.96049Z" fill="#3A3A3A"/>
</svg>
