<svg width="32" height="32" viewBox="0 0 32 32" fill="none" xmlns="http://www.w3.org/2000/svg">
<path d="M25.3656 15.7221C25.3656 16.8309 25.1808 17.8985 24.8426 18.8932L23.2423 17.2929C23.3471 16.7759 23.3997 16.2497 23.3996 15.7221V13.7562C23.3996 13.4955 23.5032 13.2455 23.6875 13.0611C23.8719 12.8768 24.1219 12.7732 24.3826 12.7732C24.6433 12.7732 24.8933 12.8768 25.0777 13.0611C25.262 13.2455 25.3656 13.4955 25.3656 13.7562V15.7221ZM15.5358 23.586C17.1439 23.586 18.6381 23.1043 19.8845 22.2747L21.296 23.6882C19.8927 24.7059 18.2439 25.3321 16.5188 25.5028V29.4838H22.4166C22.6773 29.4838 22.9274 29.5874 23.1117 29.7717C23.2961 29.9561 23.3996 30.2061 23.3996 30.4668C23.3996 30.7275 23.2961 30.9775 23.1117 31.1619C22.9274 31.3462 22.6773 31.4498 22.4166 31.4498H8.65495C8.39425 31.4498 8.14423 31.3462 7.95988 31.1619C7.77554 30.9775 7.67197 30.7275 7.67197 30.4668C7.67197 30.2061 7.77554 29.9561 7.95988 29.7717C8.14423 29.5874 8.39425 29.4838 8.65495 29.4838H14.5528V25.5028C12.1282 25.2591 9.88048 24.1235 8.2458 22.3162C6.61111 20.509 5.70599 18.159 5.70602 15.7221V13.7562C5.70602 13.4955 5.80958 13.2455 5.99393 13.0611C6.17827 12.8768 6.42829 12.7732 6.689 12.7732C6.9497 12.7732 7.19972 12.8768 7.38407 13.0611C7.56841 13.2455 7.67197 13.4955 7.67197 13.7562V15.7221C7.67197 17.8078 8.50048 19.8079 9.97523 21.2827C11.45 22.7575 13.4502 23.586 15.5358 23.586ZM21.4337 5.89237V15.4843L19.4677 13.5183V5.89237C19.4722 4.86665 19.0758 3.87976 18.3629 3.14226C17.65 2.40476 16.6771 1.97503 15.6519 1.94476C14.6266 1.91449 13.6301 2.28608 12.8749 2.98024C12.1198 3.67441 11.6658 4.63619 11.6098 5.66039L9.94855 3.99915C10.3986 2.67654 11.3035 1.55657 12.502 0.838619C13.7005 0.120671 15.1149 -0.148661 16.4934 0.0785718C17.8719 0.305804 19.125 1.01485 20.0297 2.07949C20.9344 3.14413 21.4319 4.49527 21.4337 5.89237Z" fill="#3A3A3A"/>
<path d="M18.4571 20.8477L16.9866 19.3772C16.3901 19.614 15.7448 19.7012 15.1069 19.6312C14.469 19.5612 13.8579 19.3362 13.327 18.9757C12.7961 18.6152 12.3615 18.1303 12.0611 17.5632C11.7607 16.9962 11.6037 16.3642 11.6038 15.7225V13.9964L9.63781 12.0304V15.7225C9.63751 16.7552 9.90839 17.7699 10.4234 18.6651C10.9383 19.5603 11.6793 20.3046 12.5723 20.8235C13.4652 21.3424 14.4787 21.6178 15.5114 21.622C16.5442 21.6263 17.5599 21.3593 18.4571 20.8477ZM3.044 2.65673L26.6355 26.2482L28.0274 24.8563L4.43589 1.26483L3.044 2.65673Z" fill="#3A3A3A"/>
</svg>
