<svg width="72" height="69" viewBox="0 0 72 69" fill="none" xmlns="http://www.w3.org/2000/svg">
<rect width="71.2105" height="68.6483" rx="34.3242" fill="#ED3A3A"/>
<path d="M39.1503 32.9593L39.9015 36.4674C40.1081 37.4272 40.5967 38.3035 41.3048 38.9837C42.0128 39.6638 42.908 40.1169 43.8754 40.2847L47.0442 40.8365C48.2274 41.0422 49.4444 40.7892 50.4475 40.1288C51.4506 39.4685 52.1641 38.4505 52.4428 37.2824C53.467 32.9829 51.7233 28.1927 47.194 26.6939C44.2145 25.7077 40.2553 24.8434 35.514 24.8251C30.7616 24.8061 26.7634 25.6237 23.7395 26.562C19.1798 27.9811 17.3166 32.742 18.285 37.0772C18.5444 38.2392 19.2373 39.2585 20.2223 39.9273C21.2073 40.5962 22.4103 40.8642 23.586 40.6768L26.7999 40.1641C27.7709 40.0105 28.6737 39.5698 29.3923 38.8988C30.1108 38.2278 30.6121 37.3572 30.8317 36.3989L31.6338 32.9058C32.8664 32.6056 34.1298 32.45 35.3985 32.4423C36.6663 32.4603 37.9271 32.6343 39.1524 32.9606L39.1503 32.9593Z" fill="white"/>
</svg>
