<svg width="15" height="19" viewBox="0 0 15 19" fill="none" xmlns="http://www.w3.org/2000/svg">
<path d="M3.72603 0.0974378L2.90146 0.345845C2.16725 0.56726 1.51157 0.993805 1.0116 1.57528C0.511619 2.15675 0.188154 2.86894 0.0792723 3.62804C-0.262288 6.00631 0.501335 8.7871 2.34254 11.9761C4.17914 15.1571 6.2009 17.2065 8.42622 18.1035C9.14123 18.3917 9.92395 18.4685 10.6813 18.3247C11.4387 18.181 12.1389 17.8228 12.6986 17.2927L13.3219 16.7016C13.7267 16.3186 13.9786 15.8016 14.0308 15.2467C14.0831 14.6919 13.9321 14.137 13.606 13.6851L12.0465 11.523C11.8357 11.2311 11.5388 11.0125 11.1975 10.8979C10.8562 10.7832 10.4875 10.7782 10.1432 10.8836L7.7845 11.6047L7.72355 11.6162C7.46364 11.6541 6.86332 11.0918 6.1158 9.79682C5.33378 8.44208 5.17277 7.64971 5.38783 7.445L6.58732 6.32602C7.02595 5.91714 7.32558 5.3812 7.44418 4.79339C7.56277 4.20558 7.49438 3.59539 7.24858 3.04842L6.48726 1.35672C6.25833 0.847654 5.85209 0.439203 5.34427 0.20751C4.83646 -0.0241821 4.26171 -0.0633039 3.72718 0.0974378H3.72603ZM5.43958 1.82824L6.1986 3.51994C6.34642 3.84796 6.38776 4.21406 6.3168 4.56679C6.24584 4.91952 6.06616 5.24115 5.80299 5.4865L4.60006 6.60663C3.83068 7.33575 4.08599 8.58009 5.12102 10.3718C6.09395 12.0578 6.98178 12.8904 7.9363 12.7455L8.07891 12.7156L10.4802 11.983C10.595 11.9478 10.7179 11.9493 10.8317 11.9875C10.9456 12.0257 11.0446 12.0985 11.115 12.1958L12.6744 14.3579C12.8377 14.5838 12.9134 14.8613 12.8874 15.1389C12.8614 15.4164 12.7354 15.6751 12.533 15.8667L11.9085 16.4578C11.5087 16.8362 11.0087 17.0919 10.4678 17.1944C9.92697 17.297 9.36806 17.2421 8.85748 17.0363C6.90472 16.2497 5.05892 14.3786 3.33962 11.4011C1.61572 8.41678 0.917647 5.87866 1.21781 3.79135C1.2955 3.24903 1.52654 2.74019 1.8837 2.32476C2.24086 1.90933 2.70928 1.60459 3.23382 1.44643L4.05839 1.19802C4.32572 1.11769 4.61315 1.13733 4.86707 1.25329C5.12099 1.36925 5.32407 1.5736 5.43843 1.82824H5.43958Z" fill="#0560FA"/>
</svg>
