<svg width="18" height="18" viewBox="0 0 18 18" fill="none" xmlns="http://www.w3.org/2000/svg">
<path d="M15 6.75L13.5038 15.2595C13.4427 15.607 13.2611 15.9219 12.9909 16.1488C12.7207 16.3757 12.3791 16.5 12.0263 16.5H5.97375C5.62091 16.5 5.27935 16.3757 5.00912 16.1488C4.73889 15.9219 4.55729 15.607 4.49625 15.2595L3 6.75M15.75 4.5H11.5313M11.5313 4.5V3C11.5313 2.60218 11.3732 2.22064 11.0919 1.93934C10.8106 1.65804 10.4291 1.5 10.0313 1.5H7.96875C7.57093 1.5 7.1894 1.65804 6.90809 1.93934C6.62679 2.22064 6.46875 2.60218 6.46875 3V4.5M11.5313 4.5H6.46875M2.25 4.5H6.46875" stroke="#FF2020" stroke-width="1.5" stroke-linecap="round" stroke-linejoin="round"/>
</svg>
