<svg width="33" height="25" viewBox="0 0 33 25" fill="none" xmlns="http://www.w3.org/2000/svg">
<path d="M32.47 4.40374C32.473 4.00462 32.3644 3.6126 32.1564 3.27193C31.9484 2.93127 31.6493 2.65553 31.2929 2.47583C30.9551 2.29442 30.5728 2.21244 30.1903 2.23937C29.8078 2.26631 29.4407 2.40107 29.1316 2.62804L24.3525 5.68224V2.02937C24.3525 1.49115 24.1387 0.97497 23.7581 0.594389C23.3775 0.213808 22.8613 0 22.3231 0H4.05875C2.9823 0 1.94994 0.427616 1.18878 1.18878C0.427617 1.94994 0 2.9823 0 4.05874V20.2937C0 21.3702 0.427617 22.4025 1.18878 23.1637C1.94994 23.9249 2.9823 24.3525 4.05875 24.3525H22.3231C22.8613 24.3525 23.3775 24.1387 23.7581 23.7581C24.1387 23.3775 24.3525 22.8613 24.3525 22.3231V18.6702L29.0606 21.7143C29.3756 21.9555 29.7524 22.1025 30.1474 22.1384C30.5425 22.1743 30.9396 22.0976 31.2929 21.9172C31.6556 21.7345 31.9589 21.4524 32.1673 21.1039C32.3757 20.7553 32.4807 20.3547 32.47 19.9487V4.40374ZM30.3696 20.0603C30.3087 20.0603 30.2579 20.0603 30.1768 19.9995L22.3231 14.9869V22.3231H4.05875C3.52052 22.3231 3.00434 22.1093 2.62376 21.7287C2.24318 21.3481 2.02937 20.8319 2.02937 20.2937V4.05874C2.02937 3.52052 2.24318 3.00434 2.62376 2.62376C3.00434 2.24318 3.52052 2.02937 4.05875 2.02937H22.3231V9.36555L30.2377 4.29212C30.2568 4.27811 30.2799 4.27055 30.3036 4.27055C30.3273 4.27055 30.3504 4.27811 30.3696 4.29212C30.3918 4.30072 30.4106 4.31619 30.4234 4.33627C30.4362 4.35635 30.4422 4.37999 30.4406 4.40374V19.9487C30.4422 19.9725 30.4362 19.9961 30.4234 20.0162C30.4106 20.0363 30.3918 20.0517 30.3696 20.0603Z" fill="#3A3A3A"/>
</svg>
